<svg width="186" height="186" viewBox="0 0 186 186" fill="none" xmlns="http://www.w3.org/2000/svg">
<mask id="path-1-outside-1_443_9" maskUnits="userSpaceOnUse" x="0" y="0" width="186" height="186" fill="black">
<rect fill="white" width="186" height="186"/>
<path d="M1 33C1 15.3269 15.3269 1 33 1H153C170.673 1 185 15.3269 185 33V153C185 170.673 170.673 185 153 185H33C15.3269 185 1 170.673 1 153V33Z"/>
<path d="M14 33C14 25.268 20.268 19 28 19H73C80.732 19 87 25.268 87 33V75C87 82.732 80.732 89 73 89H28C20.268 89 14 82.732 14 75V33Z"/>
<path d="M99 33C99 25.268 105.268 19 113 19H158C165.732 19 172 25.268 172 33V75C172 82.732 165.732 89 158 89H113C105.268 89 99 82.732 99 75V33Z"/>
<path d="M99 112C99 104.268 105.268 98 113 98H158C165.732 98 172 104.268 172 112V154C172 161.732 165.732 168 158 168H113C105.268 168 99 161.732 99 154V112Z"/>
<path d="M14 112C14 104.268 20.268 98 28 98H73C80.732 98 87 104.268 87 112V154C87 161.732 80.732 168 73 168H28C20.268 168 14 161.732 14 154V112Z"/>
<path d="M42.0114 71V68.4432L51.6136 57.9318C52.7405 56.7008 53.6686 55.6307 54.3977 54.7216C55.1269 53.803 55.6667 52.9413 56.017 52.1364C56.3769 51.322 56.5568 50.4697 56.5568 49.5795C56.5568 48.5568 56.3106 47.6714 55.8182 46.9233C55.3352 46.1752 54.6724 45.5975 53.8295 45.1903C52.9867 44.7831 52.0398 44.5795 50.9886 44.5795C49.8712 44.5795 48.8958 44.8116 48.0625 45.2756C47.2386 45.7301 46.5994 46.3693 46.1449 47.1932C45.6998 48.017 45.4773 48.983 45.4773 50.0909H42.125C42.125 48.3864 42.518 46.8902 43.304 45.6023C44.09 44.3144 45.16 43.3106 46.5142 42.5909C47.8778 41.8712 49.4072 41.5114 51.1023 41.5114C52.8068 41.5114 54.3172 41.8712 55.6335 42.5909C56.9498 43.3106 57.982 44.2812 58.7301 45.5028C59.4782 46.7244 59.8523 48.0833 59.8523 49.5795C59.8523 50.6496 59.6581 51.696 59.2699 52.7188C58.8911 53.732 58.2282 54.8636 57.2812 56.1136C56.3438 57.3542 55.0417 58.8693 53.375 60.6591L46.8409 67.6477V67.875H60.3636V71H42.0114Z"/>
<path d="M136.5 71.3977C134.36 71.3977 132.537 70.8153 131.031 69.6506C129.526 68.4763 128.375 66.7765 127.58 64.5511C126.784 62.3163 126.386 59.6174 126.386 56.4545C126.386 53.3106 126.784 50.6259 127.58 48.4006C128.384 46.1657 129.54 44.4612 131.045 43.2869C132.561 42.1032 134.379 41.5114 136.5 41.5114C138.621 41.5114 140.435 42.1032 141.94 43.2869C143.455 44.4612 144.611 46.1657 145.406 48.4006C146.211 50.6259 146.614 53.3106 146.614 56.4545C146.614 59.6174 146.216 62.3163 145.42 64.5511C144.625 66.7765 143.474 68.4763 141.969 69.6506C140.463 70.8153 138.64 71.3977 136.5 71.3977ZM136.5 68.2727C138.621 68.2727 140.269 67.25 141.443 65.2045C142.617 63.1591 143.205 60.2424 143.205 56.4545C143.205 53.9356 142.935 51.7907 142.395 50.0199C141.865 48.2491 141.098 46.8996 140.094 45.9716C139.099 45.0436 137.902 44.5795 136.5 44.5795C134.398 44.5795 132.755 45.6165 131.571 47.6903C130.387 49.7547 129.795 52.6761 129.795 56.4545C129.795 58.9735 130.061 61.1136 130.591 62.875C131.121 64.6364 131.884 65.9763 132.878 66.8949C133.882 67.8135 135.089 68.2727 136.5 68.2727Z"/>
<path d="M41.3295 142.034V139.136L54.1136 118.909H56.2159V123.398H54.7955L45.1364 138.682V138.909H62.3523V142.034H41.3295ZM55.0227 148V118.909H58.375V148H55.0227Z"/>
<path d="M136.33 148.398C134.379 148.398 132.655 148.052 131.159 147.361C129.672 146.66 128.512 145.699 127.679 144.477C126.846 143.246 126.434 141.845 126.443 140.273C126.434 139.042 126.675 137.905 127.168 136.864C127.66 135.812 128.332 134.937 129.185 134.236C130.046 133.526 131.008 133.076 132.068 132.886V132.716C130.676 132.356 129.568 131.575 128.744 130.372C127.92 129.16 127.513 127.782 127.523 126.239C127.513 124.761 127.887 123.44 128.645 122.276C129.402 121.111 130.444 120.192 131.77 119.52C133.105 118.848 134.625 118.511 136.33 118.511C138.015 118.511 139.521 118.848 140.847 119.52C142.172 120.192 143.214 121.111 143.972 122.276C144.739 123.44 145.127 124.761 145.136 126.239C145.127 127.782 144.705 129.16 143.872 130.372C143.048 131.575 141.955 132.356 140.591 132.716V132.886C141.642 133.076 142.589 133.526 143.432 134.236C144.275 134.937 144.947 135.812 145.449 136.864C145.951 137.905 146.206 139.042 146.216 140.273C146.206 141.845 145.78 143.246 144.938 144.477C144.104 145.699 142.944 146.66 141.457 147.361C139.98 148.052 138.271 148.398 136.33 148.398ZM136.33 145.273C137.646 145.273 138.782 145.06 139.739 144.634C140.695 144.207 141.434 143.606 141.955 142.83C142.475 142.053 142.741 141.144 142.75 140.102C142.741 139.004 142.456 138.033 141.898 137.19C141.339 136.348 140.577 135.685 139.611 135.202C138.654 134.719 137.561 134.477 136.33 134.477C135.089 134.477 133.981 134.719 133.006 135.202C132.04 135.685 131.277 136.348 130.719 137.19C130.17 138.033 129.9 139.004 129.909 140.102C129.9 141.144 130.151 142.053 130.662 142.83C131.183 143.606 131.926 144.207 132.892 144.634C133.858 145.06 135.004 145.273 136.33 145.273ZM136.33 131.466C137.371 131.466 138.295 131.258 139.099 130.841C139.914 130.424 140.553 129.842 141.017 129.094C141.481 128.346 141.718 127.47 141.727 126.466C141.718 125.481 141.486 124.624 141.031 123.895C140.577 123.156 139.947 122.588 139.142 122.19C138.337 121.783 137.4 121.58 136.33 121.58C135.241 121.58 134.289 121.783 133.474 122.19C132.66 122.588 132.03 123.156 131.585 123.895C131.14 124.624 130.922 125.481 130.932 126.466C130.922 127.47 131.145 128.346 131.599 129.094C132.063 129.842 132.703 130.424 133.517 130.841C134.331 131.258 135.269 131.466 136.33 131.466Z"/>
</mask>
<path d="M1 33C1 15.3269 15.3269 1 33 1H153C170.673 1 185 15.3269 185 33V153C185 170.673 170.673 185 153 185H33C15.3269 185 1 170.673 1 153V33Z" fill="#EDE0C8"/>
<path d="M14 33C14 25.268 20.268 19 28 19H73C80.732 19 87 25.268 87 33V75C87 82.732 80.732 89 73 89H28C20.268 89 14 82.732 14 75V33Z" fill="#F2B179"/>
<path d="M99 33C99 25.268 105.268 19 113 19H158C165.732 19 172 25.268 172 33V75C172 82.732 165.732 89 158 89H113C105.268 89 99 82.732 99 75V33Z" fill="#F59563"/>
<path d="M99 112C99 104.268 105.268 98 113 98H158C165.732 98 172 104.268 172 112V154C172 161.732 165.732 168 158 168H113C105.268 168 99 161.732 99 154V112Z" fill="#F8B195"/>
<path d="M14 112C14 104.268 20.268 98 28 98H73C80.732 98 87 104.268 87 112V154C87 161.732 80.732 168 73 168H28C20.268 168 14 161.732 14 154V112Z" fill="#EDC22E"/>
<path d="M42.0114 71V68.4432L51.6136 57.9318C52.7405 56.7008 53.6686 55.6307 54.3977 54.7216C55.1269 53.803 55.6667 52.9413 56.017 52.1364C56.3769 51.322 56.5568 50.4697 56.5568 49.5795C56.5568 48.5568 56.3106 47.6714 55.8182 46.9233C55.3352 46.1752 54.6724 45.5975 53.8295 45.1903C52.9867 44.7831 52.0398 44.5795 50.9886 44.5795C49.8712 44.5795 48.8958 44.8116 48.0625 45.2756C47.2386 45.7301 46.5994 46.3693 46.1449 47.1932C45.6998 48.017 45.4773 48.983 45.4773 50.0909H42.125C42.125 48.3864 42.518 46.8902 43.304 45.6023C44.09 44.3144 45.16 43.3106 46.5142 42.5909C47.8778 41.8712 49.4072 41.5114 51.1023 41.5114C52.8068 41.5114 54.3172 41.8712 55.6335 42.5909C56.9498 43.3106 57.982 44.2812 58.7301 45.5028C59.4782 46.7244 59.8523 48.0833 59.8523 49.5795C59.8523 50.6496 59.6581 51.696 59.2699 52.7188C58.8911 53.732 58.2282 54.8636 57.2812 56.1136C56.3438 57.3542 55.0417 58.8693 53.375 60.6591L46.8409 67.6477V67.875H60.3636V71H42.0114Z" fill="white"/>
<path d="M136.5 71.3977C134.36 71.3977 132.537 70.8153 131.031 69.6506C129.526 68.4763 128.375 66.7765 127.58 64.5511C126.784 62.3163 126.386 59.6174 126.386 56.4545C126.386 53.3106 126.784 50.6259 127.58 48.4006C128.384 46.1657 129.54 44.4612 131.045 43.2869C132.561 42.1032 134.379 41.5114 136.5 41.5114C138.621 41.5114 140.435 42.1032 141.94 43.2869C143.455 44.4612 144.611 46.1657 145.406 48.4006C146.211 50.6259 146.614 53.3106 146.614 56.4545C146.614 59.6174 146.216 62.3163 145.42 64.5511C144.625 66.7765 143.474 68.4763 141.969 69.6506C140.463 70.8153 138.64 71.3977 136.5 71.3977ZM136.5 68.2727C138.621 68.2727 140.269 67.25 141.443 65.2045C142.617 63.1591 143.205 60.2424 143.205 56.4545C143.205 53.9356 142.935 51.7907 142.395 50.0199C141.865 48.2491 141.098 46.8996 140.094 45.9716C139.099 45.0436 137.902 44.5795 136.5 44.5795C134.398 44.5795 132.755 45.6165 131.571 47.6903C130.387 49.7547 129.795 52.6761 129.795 56.4545C129.795 58.9735 130.061 61.1136 130.591 62.875C131.121 64.6364 131.884 65.9763 132.878 66.8949C133.882 67.8135 135.089 68.2727 136.5 68.2727Z" fill="white"/>
<path d="M41.3295 142.034V139.136L54.1136 118.909H56.2159V123.398H54.7955L45.1364 138.682V138.909H62.3523V142.034H41.3295ZM55.0227 148V118.909H58.375V148H55.0227Z" fill="white"/>
<path d="M136.33 148.398C134.379 148.398 132.655 148.052 131.159 147.361C129.672 146.66 128.512 145.699 127.679 144.477C126.846 143.246 126.434 141.845 126.443 140.273C126.434 139.042 126.675 137.905 127.168 136.864C127.66 135.812 128.332 134.937 129.185 134.236C130.046 133.526 131.008 133.076 132.068 132.886V132.716C130.676 132.356 129.568 131.575 128.744 130.372C127.92 129.16 127.513 127.782 127.523 126.239C127.513 124.761 127.887 123.44 128.645 122.276C129.402 121.111 130.444 120.192 131.77 119.52C133.105 118.848 134.625 118.511 136.33 118.511C138.015 118.511 139.521 118.848 140.847 119.52C142.172 120.192 143.214 121.111 143.972 122.276C144.739 123.44 145.127 124.761 145.136 126.239C145.127 127.782 144.705 129.16 143.872 130.372C143.048 131.575 141.955 132.356 140.591 132.716V132.886C141.642 133.076 142.589 133.526 143.432 134.236C144.275 134.937 144.947 135.812 145.449 136.864C145.951 137.905 146.206 139.042 146.216 140.273C146.206 141.845 145.78 143.246 144.938 144.477C144.104 145.699 142.944 146.66 141.457 147.361C139.98 148.052 138.271 148.398 136.33 148.398ZM136.33 145.273C137.646 145.273 138.782 145.06 139.739 144.634C140.695 144.207 141.434 143.606 141.955 142.83C142.475 142.053 142.741 141.144 142.75 140.102C142.741 139.004 142.456 138.033 141.898 137.19C141.339 136.348 140.577 135.685 139.611 135.202C138.654 134.719 137.561 134.477 136.33 134.477C135.089 134.477 133.981 134.719 133.006 135.202C132.04 135.685 131.277 136.348 130.719 137.19C130.17 138.033 129.9 139.004 129.909 140.102C129.9 141.144 130.151 142.053 130.662 142.83C131.183 143.606 131.926 144.207 132.892 144.634C133.858 145.06 135.004 145.273 136.33 145.273ZM136.33 131.466C137.371 131.466 138.295 131.258 139.099 130.841C139.914 130.424 140.553 129.842 141.017 129.094C141.481 128.346 141.718 127.47 141.727 126.466C141.718 125.481 141.486 124.624 141.031 123.895C140.577 123.156 139.947 122.588 139.142 122.19C138.337 121.783 137.4 121.58 136.33 121.58C135.241 121.58 134.289 121.783 133.474 122.19C132.66 122.588 132.03 123.156 131.585 123.895C131.14 124.624 130.922 125.481 130.932 126.466C130.922 127.47 131.145 128.346 131.599 129.094C132.063 129.842 132.703 130.424 133.517 130.841C134.331 131.258 135.269 131.466 136.33 131.466Z" fill="white"/>
<path d="M1 33C1 15.3269 15.3269 1 33 1H153C170.673 1 185 15.3269 185 33V153C185 170.673 170.673 185 153 185H33C15.3269 185 1 170.673 1 153V33Z" stroke="white" stroke-width="2" mask="url(#path-1-outside-1_443_9)"/>
<path d="M14 33C14 25.268 20.268 19 28 19H73C80.732 19 87 25.268 87 33V75C87 82.732 80.732 89 73 89H28C20.268 89 14 82.732 14 75V33Z" stroke="white" stroke-width="2" mask="url(#path-1-outside-1_443_9)"/>
<path d="M99 33C99 25.268 105.268 19 113 19H158C165.732 19 172 25.268 172 33V75C172 82.732 165.732 89 158 89H113C105.268 89 99 82.732 99 75V33Z" stroke="white" stroke-width="2" mask="url(#path-1-outside-1_443_9)"/>
<path d="M99 112C99 104.268 105.268 98 113 98H158C165.732 98 172 104.268 172 112V154C172 161.732 165.732 168 158 168H113C105.268 168 99 161.732 99 154V112Z" stroke="white" stroke-width="2" mask="url(#path-1-outside-1_443_9)"/>
<path d="M14 112C14 104.268 20.268 98 28 98H73C80.732 98 87 104.268 87 112V154C87 161.732 80.732 168 73 168H28C20.268 168 14 161.732 14 154V112Z" stroke="white" stroke-width="2" mask="url(#path-1-outside-1_443_9)"/>
<path d="M42.0114 71V68.4432L51.6136 57.9318C52.7405 56.7008 53.6686 55.6307 54.3977 54.7216C55.1269 53.803 55.6667 52.9413 56.017 52.1364C56.3769 51.322 56.5568 50.4697 56.5568 49.5795C56.5568 48.5568 56.3106 47.6714 55.8182 46.9233C55.3352 46.1752 54.6724 45.5975 53.8295 45.1903C52.9867 44.7831 52.0398 44.5795 50.9886 44.5795C49.8712 44.5795 48.8958 44.8116 48.0625 45.2756C47.2386 45.7301 46.5994 46.3693 46.1449 47.1932C45.6998 48.017 45.4773 48.983 45.4773 50.0909H42.125C42.125 48.3864 42.518 46.8902 43.304 45.6023C44.09 44.3144 45.16 43.3106 46.5142 42.5909C47.8778 41.8712 49.4072 41.5114 51.1023 41.5114C52.8068 41.5114 54.3172 41.8712 55.6335 42.5909C56.9498 43.3106 57.982 44.2812 58.7301 45.5028C59.4782 46.7244 59.8523 48.0833 59.8523 49.5795C59.8523 50.6496 59.6581 51.696 59.2699 52.7188C58.8911 53.732 58.2282 54.8636 57.2812 56.1136C56.3438 57.3542 55.0417 58.8693 53.375 60.6591L46.8409 67.6477V67.875H60.3636V71H42.0114Z" stroke="white" stroke-width="2" mask="url(#path-1-outside-1_443_9)"/>
<path d="M136.5 71.3977C134.36 71.3977 132.537 70.8153 131.031 69.6506C129.526 68.4763 128.375 66.7765 127.58 64.5511C126.784 62.3163 126.386 59.6174 126.386 56.4545C126.386 53.3106 126.784 50.6259 127.58 48.4006C128.384 46.1657 129.54 44.4612 131.045 43.2869C132.561 42.1032 134.379 41.5114 136.5 41.5114C138.621 41.5114 140.435 42.1032 141.94 43.2869C143.455 44.4612 144.611 46.1657 145.406 48.4006C146.211 50.6259 146.614 53.3106 146.614 56.4545C146.614 59.6174 146.216 62.3163 145.42 64.5511C144.625 66.7765 143.474 68.4763 141.969 69.6506C140.463 70.8153 138.64 71.3977 136.5 71.3977ZM136.5 68.2727C138.621 68.2727 140.269 67.25 141.443 65.2045C142.617 63.1591 143.205 60.2424 143.205 56.4545C143.205 53.9356 142.935 51.7907 142.395 50.0199C141.865 48.2491 141.098 46.8996 140.094 45.9716C139.099 45.0436 137.902 44.5795 136.5 44.5795C134.398 44.5795 132.755 45.6165 131.571 47.6903C130.387 49.7547 129.795 52.6761 129.795 56.4545C129.795 58.9735 130.061 61.1136 130.591 62.875C131.121 64.6364 131.884 65.9763 132.878 66.8949C133.882 67.8135 135.089 68.2727 136.5 68.2727Z" stroke="white" stroke-width="2" mask="url(#path-1-outside-1_443_9)"/>
<path d="M41.3295 142.034V139.136L54.1136 118.909H56.2159V123.398H54.7955L45.1364 138.682V138.909H62.3523V142.034H41.3295ZM55.0227 148V118.909H58.375V148H55.0227Z" stroke="white" stroke-width="2" mask="url(#path-1-outside-1_443_9)"/>
<path d="M136.33 148.398C134.379 148.398 132.655 148.052 131.159 147.361C129.672 146.66 128.512 145.699 127.679 144.477C126.846 143.246 126.434 141.845 126.443 140.273C126.434 139.042 126.675 137.905 127.168 136.864C127.66 135.812 128.332 134.937 129.185 134.236C130.046 133.526 131.008 133.076 132.068 132.886V132.716C130.676 132.356 129.568 131.575 128.744 130.372C127.92 129.16 127.513 127.782 127.523 126.239C127.513 124.761 127.887 123.44 128.645 122.276C129.402 121.111 130.444 120.192 131.77 119.52C133.105 118.848 134.625 118.511 136.33 118.511C138.015 118.511 139.521 118.848 140.847 119.52C142.172 120.192 143.214 121.111 143.972 122.276C144.739 123.44 145.127 124.761 145.136 126.239C145.127 127.782 144.705 129.16 143.872 130.372C143.048 131.575 141.955 132.356 140.591 132.716V132.886C141.642 133.076 142.589 133.526 143.432 134.236C144.275 134.937 144.947 135.812 145.449 136.864C145.951 137.905 146.206 139.042 146.216 140.273C146.206 141.845 145.78 143.246 144.938 144.477C144.104 145.699 142.944 146.66 141.457 147.361C139.98 148.052 138.271 148.398 136.33 148.398ZM136.33 145.273C137.646 145.273 138.782 145.06 139.739 144.634C140.695 144.207 141.434 143.606 141.955 142.83C142.475 142.053 142.741 141.144 142.75 140.102C142.741 139.004 142.456 138.033 141.898 137.19C141.339 136.348 140.577 135.685 139.611 135.202C138.654 134.719 137.561 134.477 136.33 134.477C135.089 134.477 133.981 134.719 133.006 135.202C132.04 135.685 131.277 136.348 130.719 137.19C130.17 138.033 129.9 139.004 129.909 140.102C129.9 141.144 130.151 142.053 130.662 142.83C131.183 143.606 131.926 144.207 132.892 144.634C133.858 145.06 135.004 145.273 136.33 145.273ZM136.33 131.466C137.371 131.466 138.295 131.258 139.099 130.841C139.914 130.424 140.553 129.842 141.017 129.094C141.481 128.346 141.718 127.47 141.727 126.466C141.718 125.481 141.486 124.624 141.031 123.895C140.577 123.156 139.947 122.588 139.142 122.19C138.337 121.783 137.4 121.58 136.33 121.58C135.241 121.58 134.289 121.783 133.474 122.19C132.66 122.588 132.03 123.156 131.585 123.895C131.14 124.624 130.922 125.481 130.932 126.466C130.922 127.47 131.145 128.346 131.599 129.094C132.063 129.842 132.703 130.424 133.517 130.841C134.331 131.258 135.269 131.466 136.33 131.466Z" stroke="white" stroke-width="2" mask="url(#path-1-outside-1_443_9)"/>
</svg>
